<svg width="49" height="48" viewBox="0 0 49 48" fill="none" xmlns="http://www.w3.org/2000/svg">
<rect x="48.6846" y="0.0742188" width="47.1198" height="48" rx="23.5599" transform="rotate(90 48.6846 0.0742188)" fill="url(#paint0_linear_4_977)"/>
<path d="M37.614 24.416L27.6746 34.3553C27.4674 34.5625 27.1864 34.679 26.8933 34.679C26.6002 34.679 26.3192 34.5625 26.112 34.3553C25.9047 34.1481 25.7883 33.867 25.7883 33.574C25.7883 33.2809 25.9047 32.9999 26.112 32.7926L34.167 24.739H12.5365C12.2436 24.739 11.9627 24.6227 11.7556 24.4156C11.5485 24.2084 11.4321 23.9275 11.4321 23.6346C11.4321 23.3417 11.5485 23.0608 11.7556 22.8537C11.9627 22.6466 12.2436 22.5303 12.5365 22.5303H34.167L26.112 14.4767C25.9047 14.2694 25.7883 13.9884 25.7883 13.6953C25.7883 13.4023 25.9047 13.1212 26.112 12.914C26.3192 12.7067 26.6002 12.5903 26.8933 12.5903C27.1864 12.5903 27.4674 12.7067 27.6746 12.914L37.614 22.8533C37.7167 22.9559 37.7981 23.0777 37.8537 23.2117C37.9093 23.3458 37.9379 23.4895 37.9379 23.6346C37.9379 23.7798 37.9093 23.9235 37.8537 24.0576C37.7981 24.1916 37.7167 24.3134 37.614 24.416Z" fill="white"/>
<defs>
<linearGradient id="paint0_linear_4_977" x1="95.8043" y1="48.0742" x2="47.8126" y2="0.962518" gradientUnits="userSpaceOnUse">
<stop stop-color="#D02C30"/>
<stop offset="1" stop-color="#FF3A3F"/>
</linearGradient>
</defs>
</svg>
