<svg width="65" height="65" viewBox="0 0 65 65" fill="none" xmlns="http://www.w3.org/2000/svg">
<path d="M2.87866 52.6118H62.8787V56.6118H2.87866V52.6118Z" fill="url(#paint0_linear_4_946)"/>
<path d="M24.8162 47.6123H36.9412C40.6363 47.6081 44.1789 46.1383 46.7918 43.5255C49.4047 40.9126 50.8745 37.37 50.8787 33.6748V31.6123H53.8787C56.2656 31.6123 58.5548 30.6641 60.2426 28.9763C61.9304 27.2884 62.8787 24.9993 62.8787 22.6123C62.8787 20.2254 61.9304 17.9362 60.2426 16.2483C58.5548 14.5605 56.2656 13.6123 53.8787 13.6123H10.8787V33.6748C10.8829 37.37 12.3526 40.9126 14.9655 43.5255C17.5784 46.1383 21.121 47.6081 24.8162 47.6123ZM50.8787 17.6123H53.8787C55.2047 17.6123 56.4765 18.1391 57.4142 19.0768C58.3519 20.0145 58.8787 21.2862 58.8787 22.6123C58.8787 23.9384 58.3519 25.2102 57.4142 26.1478C56.4765 27.0855 55.2047 27.6123 53.8787 27.6123H50.8787V17.6123ZM14.8787 17.6123H46.8787V33.6748C46.8757 36.3095 45.8277 38.8354 43.9647 40.6984C42.1017 42.5614 39.5758 43.6093 36.9412 43.6123H24.8162C22.1815 43.6093 19.6556 42.5614 17.7926 40.6984C15.9296 38.8354 14.8816 36.3095 14.8787 33.6748V17.6123Z" fill="#5C6E7F"/>
<defs>
<linearGradient id="paint0_linear_4_946" x1="62.8787" y1="56.6118" x2="62.3477" y2="48.6472" gradientUnits="userSpaceOnUse">
<stop stop-color="#D02C30"/>
<stop offset="1" stop-color="#FF3A3F"/>
</linearGradient>
</defs>
</svg>
