<svg width="250" height="250" viewBox="0 0 250 250" fill="none" xmlns="http://www.w3.org/2000/svg">
<g clip-path="url(#clip0_129_22690)">
<path d="M166.096 166.905C164.542 166.266 163.209 165.878 162.071 165.184C159.073 163.352 156.159 161.381 153.216 159.438C150.885 157.883 148.553 157.606 145.999 158.855C144.334 159.66 142.585 160.326 140.836 160.965C138.532 161.825 137.005 163.38 136.45 165.795C135.645 169.431 134.868 173.067 134.091 176.704C133.314 180.312 131.065 182.144 127.401 182.172C125.819 182.172 124.237 182.172 122.627 182.172C118.629 182.117 116.547 180.451 115.687 176.482C114.91 172.984 114.188 169.459 113.466 165.961C112.967 163.602 111.606 161.992 109.414 161.076C107.387 160.215 105.333 159.382 103.307 158.522C101.114 157.606 99.0041 157.8 97.0055 159.105C94.0075 161.076 90.9819 163.019 87.984 164.962C84.7362 167.071 81.7938 166.766 79.0457 164.018C78.0186 162.991 77.0193 161.964 75.9923 160.937C73.2164 158.133 72.8278 155.302 74.9097 151.999C76.6862 149.195 78.4628 146.391 80.3504 143.699C82.2102 141.062 82.5155 138.452 81.0166 135.566C80.2948 134.178 79.7119 132.679 79.2123 131.18C78.2962 128.432 76.4364 126.877 73.605 126.294C70.163 125.6 66.7209 124.851 63.2789 124.101C59.7813 123.324 57.9493 121.076 57.8937 117.55C57.8937 116.024 57.8937 114.525 57.8937 112.998C57.8937 108.612 59.5315 106.613 63.8618 105.67C67.1651 104.948 70.4683 104.226 73.7716 103.588C76.5474 103.06 78.2962 101.45 79.24 98.8133C79.7952 97.2588 80.4059 95.7043 81.1554 94.2331C82.46 91.5683 82.349 89.0978 80.6557 86.6273C78.7126 83.7682 76.8528 80.8813 75.0207 77.9389C72.9111 74.6079 73.2719 71.8043 76.0756 69.0007C77.1026 67.9736 78.1019 66.9465 79.1567 65.9195C81.9881 63.1714 84.8195 62.866 88.1227 64.9757C90.8986 66.78 93.7022 68.5565 96.4225 70.4441C99.0041 72.2206 101.586 72.526 104.389 71.1103C105.86 70.3608 107.415 69.7224 108.969 69.195C111.69 68.3067 113.161 66.4191 113.716 63.7265C114.466 60.229 115.16 56.7036 115.965 53.2061C116.742 49.7918 118.935 48.0152 122.404 47.932C124.209 47.9042 125.985 47.8764 127.79 47.932C131.287 48.0152 133.425 49.7085 134.23 53.2061C135.035 56.7036 135.784 60.2012 136.478 63.7265C137.005 66.4746 138.504 68.3067 141.169 69.2505C142.918 69.8612 144.639 70.6384 146.332 71.3879C148.664 72.4427 150.857 72.3594 153.022 70.9715C156.02 69.0284 159.046 67.0576 162.044 65.1145C165.375 62.9771 168.178 63.2824 170.982 66.0583C172.064 67.1131 173.119 68.1957 174.202 69.2782C176.867 71.9986 177.172 74.8855 175.146 78.0499C173.23 80.9923 171.343 83.9625 169.372 86.8771C167.845 89.1256 167.623 91.4295 168.789 93.9278C169.538 95.5378 170.288 97.2033 170.843 98.8966C171.787 101.783 173.785 103.255 176.672 103.838C179.976 104.504 183.279 105.225 186.582 105.947C190.468 106.808 192.162 108.945 192.189 112.97C192.189 114.691 192.245 116.412 192.189 118.133C192.078 121.242 190.246 123.491 187.221 124.185C183.529 125.045 179.809 125.795 176.089 126.572C173.48 127.099 171.842 128.654 170.926 131.124C170.343 132.679 169.76 134.233 169.011 135.704C167.54 138.591 167.79 141.228 169.649 143.865C171.593 146.641 173.369 149.5 175.173 152.359C177.089 155.413 176.783 158.216 174.285 160.826C173.036 162.13 171.87 163.518 170.454 164.573C169.205 165.545 167.651 166.128 166.207 166.905H166.096ZM147.97 120.409C150.08 110.555 146.082 100.59 137.505 95.1214C129.15 89.7918 118.268 90.4025 110.385 96.6204C102.585 102.783 99.5315 113.248 102.668 122.713C103.029 123.796 103.001 125.101 102.807 126.239C102.391 128.709 103.723 131.096 105.666 130.708C107.054 130.43 107.665 131.041 108.442 131.79C114.132 137.259 120.906 139.452 128.733 138.314C132.703 137.731 136.228 136.065 138.893 134.122" fill="white"/>
<path d="M42.3212 117.077H35.6869C36.7973 111.304 37.63 105.724 38.9347 100.256C42.7931 84.1281 49.4829 69.3328 60.503 56.7582C73.2164 42.2683 89.3441 33.8852 108.22 30.7763C128.039 27.5008 147.609 28.4446 166.318 36.4945C184.084 44.1281 196.381 57.3689 204.403 74.7735C210.482 87.9588 213.508 101.921 214.341 116.411C214.341 116.606 214.285 116.8 214.257 117.105H208.178C207.817 113.719 207.54 110.304 207.068 106.918C204.792 90.9012 199.851 75.8838 189.969 62.8374C179.393 48.8748 165.153 40.6861 148.137 37.4383C128.844 33.7742 109.802 34.6347 91.3982 42.1295C80.2393 46.6541 70.968 53.8158 63.3899 63.1427C62.6404 64.0865 61.5856 64.7805 60.6696 65.6132C60.4197 65.8353 60.1144 66.0573 59.9756 66.3627C56.8389 72.5528 53.4524 78.6319 50.6488 84.9609C46.2629 94.9262 43.7646 105.474 42.5155 116.3C42.4878 116.578 42.4322 116.828 42.3767 117.133L42.3212 117.077Z" fill="white"/>
<path d="M150.579 220.978C144.445 220.978 138.31 220.978 132.175 220.978C123.987 220.95 117.908 215.037 117.908 207.237C117.908 199.409 124.014 193.525 132.175 193.497C144.445 193.497 156.714 193.441 169.011 193.497C175.867 193.525 181.225 197.855 182.613 204.267C183.973 210.568 181.03 216.87 175.146 219.534C173.258 220.395 171.037 220.839 168.955 220.894C162.821 221.061 156.686 220.95 150.552 220.95L150.579 220.978Z" fill="white"/>
<path d="M224.972 156.3C224.972 162.518 225.055 168.708 224.972 174.926C224.889 181.089 221.364 186.002 215.84 187.917C210.427 189.805 204.597 188.223 200.85 183.837C198.602 181.2 197.575 178.146 197.575 174.704C197.575 162.296 197.575 149.888 197.575 137.48C197.575 129.846 203.459 123.795 210.899 123.656C218.671 123.49 224.778 129.264 224.944 137.119C225.083 143.531 224.944 149.944 224.944 156.356L224.972 156.3Z" fill="white"/>
<path d="M25.0278 156.051C25.0278 149.695 24.9168 143.338 25.0556 137.009C25.1666 131.485 27.8314 127.321 32.8002 124.962C37.6579 122.658 42.4879 123.102 46.9015 126.294C50.5379 128.931 52.3977 132.679 52.4254 137.12C52.5087 149.695 52.5365 162.242 52.4254 174.816C52.3699 182.727 46.3186 188.668 38.6572 188.695C31.1347 188.695 25.1943 182.616 25.0278 174.677C25.0278 174.539 25.0278 174.4 25.0278 174.261C25.0278 168.182 25.0278 162.103 25.0278 156.024V156.051Z" fill="white"/>
<path d="M213.147 195.273C210.899 203.684 200.101 209.652 189.441 209.847V203.906C191.523 203.434 193.661 203.074 195.77 202.491C199.962 201.325 203.681 199.354 206.263 195.634C206.568 195.218 207.346 194.913 207.901 194.913C209.622 194.913 211.315 195.135 213.147 195.301V195.273Z" fill="white"/>
<path d="M143.973 129.569C144.25 132.206 143.862 132.595 141.197 132.206C142.169 131.29 143.001 130.513 143.973 129.569Z" fill="white"/>
<path d="M126.402 88.3203C111.329 88.3203 99.1152 100.534 99.1152 115.607C99.1152 130.68 111.329 142.894 126.402 142.894C141.475 142.894 153.688 130.68 153.688 115.607C153.688 100.534 141.475 88.3203 126.402 88.3203ZM126.402 136.315C114.965 136.315 105.666 127.043 105.666 115.579C105.666 104.115 114.938 94.8436 126.402 94.8436C137.866 94.8436 147.137 104.115 147.137 115.579C147.137 127.043 137.866 136.315 126.402 136.315Z" fill="white"/>
</g>
<defs>
<clipPath id="clip0_129_22690">
<rect width="200" height="192.006" fill="white" transform="translate(25 29)"/>
</clipPath>
</defs>
</svg>
