<svg width="65" height="65" viewBox="0 0 65 65" fill="none" xmlns="http://www.w3.org/2000/svg">
<path d="M16.7075 42.6123V42.5043C15.6138 41.5248 14.6123 40.4469 13.7155 39.2843C13.0584 40.2699 12.7076 41.4278 12.7075 42.6123V44.6123C12.7075 52.4963 20.1475 60.6123 32.7075 60.6123C45.2675 60.6123 52.7075 52.4963 52.7075 44.6123V42.6123C52.7075 41.021 52.0754 39.4949 50.9502 38.3697C49.8249 37.2445 48.2988 36.6123 46.7075 36.6123H40.7075C41.5835 37.7723 42.2075 39.1323 42.5075 40.6123H46.7075C47.238 40.6123 47.7467 40.8231 48.1217 41.1981C48.4968 41.5732 48.7075 42.0819 48.7075 42.6123V44.6123C48.7075 50.3643 42.9795 56.6123 32.7075 56.6123C22.4355 56.6123 16.7075 50.3643 16.7075 44.6123V42.6123ZM32.7075 32.6123C30.4188 32.6122 28.1993 33.3973 26.4195 34.8363C24.6707 33.7649 23.2268 32.2618 22.2265 30.4713C21.2262 28.6809 20.7031 26.6633 20.7075 24.6123C20.7081 22.5203 21.2556 20.4647 22.2958 18.6495C23.3359 16.8343 24.8326 15.3226 26.6373 14.2643C28.4419 13.206 30.4919 12.6379 32.5839 12.6164C34.6759 12.5948 36.7371 13.1205 38.5632 14.1414C40.3893 15.1623 41.9168 16.6429 42.9941 18.4362C44.0714 20.2296 44.6612 22.2735 44.7049 24.3651C44.7486 26.4567 44.2447 28.5234 43.2432 30.3602C42.2417 32.197 40.7774 33.7401 38.9955 34.8363C37.2158 33.3973 34.9963 32.6122 32.7075 32.6123ZM24.7075 24.6123C24.7075 26.7341 25.5504 28.7689 27.0507 30.2692C28.551 31.7695 30.5858 32.6123 32.7075 32.6123C34.8293 32.6123 36.8641 31.7695 38.3644 30.2692C39.8647 28.7689 40.7075 26.7341 40.7075 24.6123C40.7075 22.4906 39.8647 20.4558 38.3644 18.9555C36.8641 17.4552 34.8293 16.6123 32.7075 16.6123C30.5858 16.6123 28.551 17.4552 27.0507 18.9555C25.5504 20.4558 24.7075 22.4906 24.7075 24.6123Z" fill="#59748A"/>
<path d="M32.7073 48.6125C31.3101 48.6128 29.9565 48.1255 28.8802 47.2346C27.8038 46.3438 27.0721 45.1052 26.8113 43.7325C22.8878 42.5199 19.4327 40.129 16.9153 36.8845C15.0148 34.4372 13.709 31.5818 13.1008 28.5436C12.4925 25.5053 12.5986 22.3673 13.4105 19.377C14.2224 16.3867 15.718 13.626 17.7793 11.3126C19.8407 8.99916 22.4113 7.19633 25.2885 6.04628C28.1657 4.89623 31.2708 4.43043 34.3588 4.68562C37.4468 4.94081 40.4333 5.91001 43.0827 7.51676C45.7321 9.12352 47.972 11.3239 49.6255 13.9443C51.2791 16.5647 52.3013 19.5335 52.6113 22.6165C52.7193 23.7165 51.8113 24.6125 50.7073 24.6125C49.6033 24.6125 48.7193 23.7125 48.5873 22.6165C48.2303 19.7878 47.124 17.1059 45.3827 14.8483C43.6415 12.5906 41.3286 10.8393 38.6834 9.77545C36.0382 8.7116 33.1568 8.37389 30.3373 8.79728C27.5178 9.22066 24.8626 10.3897 22.6465 12.1836C20.4304 13.9774 18.7339 16.3308 17.7326 19.0003C16.7312 21.6698 16.4613 24.5583 16.9508 27.3671C17.4404 30.1759 18.6715 32.8028 20.517 34.9761C22.3624 37.1494 24.755 38.7901 27.4473 39.7285C27.9563 38.7999 28.702 38.0226 29.6086 37.4755C30.5152 36.9283 31.5505 36.6309 32.6093 36.6133C33.668 36.5958 34.7126 36.8587 35.6369 37.3755C36.5611 37.8923 37.3322 38.6445 37.8716 39.5557C38.4111 40.4668 38.6999 41.5046 38.7085 42.5635C38.7172 43.6224 38.4454 44.6647 37.9209 45.5846C37.3964 46.5044 36.6377 47.2691 35.722 47.8009C34.8064 48.3327 33.7662 48.6127 32.7073 48.6125Z" fill="url(#paint0_linear_4_934)"/>
<defs>
<linearGradient id="paint0_linear_4_934" x1="52.62" y1="48.6125" x2="8.83345" y2="8.89301" gradientUnits="userSpaceOnUse">
<stop stop-color="#D02C30"/>
<stop offset="1" stop-color="#FF3A3F"/>
</linearGradient>
</defs>
</svg>
