<svg width="250" height="250" viewBox="0 0 250 250" fill="none" xmlns="http://www.w3.org/2000/svg">
<g clip-path="url(#clip0_129_22674)">
<path d="M128.998 49.4985C160.257 49.5985 192.191 62.1422 218.903 87.7544C220.577 89.3786 222.051 91.0777 222.401 93.5015C222.926 97.1997 221.277 100.648 218.103 102.347C214.805 104.121 211.007 103.497 208.058 100.898C204.06 97.3246 200.162 93.6015 195.89 90.3781C178.698 77.2597 159.283 69.5635 137.794 67.2896C110.157 64.3911 84.5952 70.4381 61.1569 85.3806C54.2104 89.8034 47.9385 95.0508 42.0165 100.798C37.2189 105.471 29.5227 103.522 27.8236 97.2497C26.949 93.9513 27.8236 91.0777 30.2474 88.654C41.3668 77.6345 53.9605 68.7389 68.1534 62.1172C85.6197 53.9713 104.035 49.8484 128.973 49.5235L128.998 49.4985Z" fill="white" stroke="white" stroke-width="5.54352" stroke-linecap="round" stroke-linejoin="round"/>
<path d="M194.19 123.761C194.04 126.81 192.466 129.509 189.143 130.933C185.695 132.432 182.596 131.657 179.773 129.209C176.074 126.035 172.476 122.662 168.453 119.938C152.761 109.294 135.395 105.021 116.554 107.07C98.7132 108.994 83.4208 116.44 70.5273 128.909C66.7791 132.532 61.6317 132.607 58.2334 129.159C54.8101 125.685 54.96 120.388 58.7831 116.74C80.8221 95.8004 106.984 86.9299 137.144 90.5031C157.959 92.9768 175.825 101.947 190.942 116.415C192.916 118.289 194.165 120.438 194.165 123.761H194.19Z" fill="white" stroke="white" stroke-width="5.54352" stroke-linecap="round" stroke-linejoin="round"/>
<path d="M127.899 129.633C139.793 129.833 152.436 134.956 163.031 145.101C166.704 148.624 166.879 153.946 163.556 157.394C160.282 160.793 155.135 160.793 151.387 157.394C139.318 146.325 125.625 143.676 110.357 149.548C105.735 151.322 101.887 154.321 98.2884 157.694C94.4403 161.267 88.6182 160.593 85.6197 156.345C83.2209 152.922 83.6957 148.349 86.8191 145.3C97.1639 135.131 110.557 129.658 127.924 129.658L127.899 129.633Z" fill="white" stroke="white" stroke-width="5.54352" stroke-linecap="round" stroke-linejoin="round"/>
<path d="M140.567 183.831C140.667 192.427 133.796 199.423 125.2 199.523C116.579 199.623 109.558 192.776 109.483 184.206C109.383 175.56 116.204 168.514 124.75 168.414C133.471 168.314 140.467 175.135 140.567 183.831Z" fill="white" stroke="white" stroke-width="5.54352" stroke-linecap="round" stroke-linejoin="round"/>
</g>
<defs>
<clipPath id="clip0_129_22674">
<rect width="200" height="155.022" fill="white" transform="translate(25 47)"/>
</clipPath>
</defs>
</svg>
