<svg width="250" height="250" viewBox="0 0 250 250" fill="none" xmlns="http://www.w3.org/2000/svg">
<g clip-path="url(#clip0_129_22675)">
<path d="M68.2295 172.906C68.2295 163.79 68.2562 154.673 68.2028 145.584C68.2028 144.06 68.6038 143.498 70.1544 143.338C77.0786 142.589 84.0028 142.509 90.927 143.338C102.236 144.701 111.192 150.235 118.57 158.737C121.565 162.212 124.799 165.501 128.89 167.72C134.691 170.874 140.947 171.382 147.363 170.848C150.892 170.554 154.368 170.821 157.683 172.184C163.618 174.671 164.527 180.472 159.688 184.696C156.56 187.423 152.79 188.332 148.78 188.359C142.15 188.412 135.493 188.359 128.863 188.359C126.911 188.359 126.163 189.375 126.938 191.139C127.179 191.7 128.008 192.369 128.569 192.369C135.868 192.449 143.193 192.583 150.464 192.315C156.988 192.075 161.907 188.813 165.088 183.119C165.703 181.996 166.452 181.461 167.681 181.221C180.46 178.601 193.133 175.58 205.992 173.387C218.744 171.222 224.866 181.354 222.701 191.674C221.311 198.277 217.648 202.875 210.724 204.426C192.892 208.463 175.06 212.527 157.255 216.644C148.139 218.756 138.942 220.173 129.638 218.381C122.794 217.045 115.977 215.334 109.24 213.489C96.1937 209.933 83.2275 206.164 70.2078 202.555C68.7642 202.154 68.2028 201.592 68.2295 199.988C68.3097 190.952 68.283 181.889 68.283 172.853L68.2295 172.906Z" fill="white"/>
<path d="M208.291 105.883H82.7997C83.4414 102.06 83.7622 98.317 84.7514 94.7881C91.2745 70.9678 106.486 55.5687 130.253 48.7515C131.857 48.297 132.178 47.5484 132.098 46.1048C131.831 40.0895 134.103 35.3308 139.557 32.5237C148.593 27.8986 159.019 34.2614 159.367 44.5274C159.456 46.9335 160.615 48.4574 162.843 49.099C187.706 56.0767 206.259 78.5871 208.264 104.279C208.291 104.76 208.264 105.215 208.264 105.91L208.291 105.883ZM194.977 95.0554C194.737 94.0128 194.656 93.4781 194.496 92.9702C189.657 76.582 179.07 65.6476 162.949 60.0601C161.372 59.4987 159.715 59.0175 158.057 58.8838C157.362 58.8303 156.266 59.6056 155.945 60.3007C155.464 61.3434 156.132 62.2791 157.255 62.6801C157.87 62.894 158.538 63.0009 159.18 63.1613C171.852 66.5833 181.343 74.0422 187.331 85.7251C188.828 88.6392 189.737 91.8741 190.86 94.9752C191.261 96.0981 192.01 96.8466 193.133 96.4991C193.881 96.2852 194.469 95.4565 194.977 95.0287V95.0554Z" fill="white"/>
<path d="M145.893 110.054C168.216 110.054 190.539 110.054 212.889 110.054C215.483 110.054 217.915 110.428 220.134 111.898C223.877 114.411 225.722 118.849 224.759 123.234C223.797 127.698 220.215 131.094 215.723 131.735C214.761 131.869 213.798 131.896 212.836 131.896C168.002 131.896 123.169 131.896 78.3351 131.896C73.817 131.896 70.2079 130.238 67.9087 126.255C65.7699 122.539 65.9303 118.716 68.2028 115.107C70.3683 111.685 73.6299 110.054 77.6668 110.054C83.5751 110.054 89.4834 110.054 95.4184 110.054C112.261 110.054 129.104 110.054 145.92 110.054H145.893Z" fill="white"/>
<path d="M51.0393 179.67H25.1069C25.0802 179.028 25 178.387 25 177.745C25 165.848 25 153.978 25 142.081C25 138.232 26.6575 136.574 30.5073 136.574C36.8433 136.574 43.1794 136.574 49.5154 136.574C50.5313 136.574 51.1997 136.654 51.1997 137.991C51.1462 151.679 51.173 165.367 51.1462 179.082C51.1462 179.189 51.0928 179.323 51.0126 179.67H51.0393Z" fill="white"/>
<path d="M55.3703 136.627C57.0813 136.627 58.6586 136.52 60.2092 136.654C62.348 136.841 63.952 138.579 64.1659 140.718C64.2461 141.493 64.2194 142.295 64.2194 143.07C64.2194 163.576 64.2194 184.081 64.2194 204.56C64.2194 209.505 62.8292 210.896 57.8566 210.896C57.0813 210.896 56.306 210.896 55.3703 210.896V136.601V136.627Z" fill="white"/>
<path d="M25.2139 183.974H51.066V210.922C49.863 210.922 48.7401 210.922 47.6173 210.922C41.7625 210.922 35.9076 210.922 30.0795 210.922C27.0853 210.922 25.1069 209.238 25.0802 206.378C25 199.159 25.0535 191.914 25.0802 184.669C25.0802 184.509 25.1604 184.322 25.2406 183.974H25.2139ZM38.1801 204.399C42.511 204.399 45.933 200.924 45.933 196.513C45.933 192.315 42.3506 188.84 38.1266 188.867C33.7956 188.92 30.2934 192.476 30.3469 196.753C30.4003 200.95 33.9293 204.372 38.2068 204.372L38.1801 204.399Z" fill="white"/>
<path d="M41.8694 196.673C41.8694 198.705 40.2653 200.309 38.1801 200.336C36.0948 200.336 34.2768 198.625 34.3303 196.62C34.3838 194.615 36.2285 192.877 38.2603 192.93C40.3188 192.984 41.8694 194.615 41.8694 196.673Z" fill="white"/>
</g>
<defs>
<clipPath id="clip0_129_22675">
<rect width="200" height="188.237" fill="white" transform="translate(25 31)"/>
</clipPath>
</defs>
</svg>
