<svg width="35" height="34" viewBox="0 0 35 34" fill="none" xmlns="http://www.w3.org/2000/svg">
<path d="M29.9815 9.49014C29.733 9.61881 29.4436 9.64355 29.1769 9.55894C28.9102 9.47433 28.688 9.28728 28.5592 9.03891C27.5517 7.04859 26.0267 5.36637 24.1445 4.16902C24.0272 4.09504 23.9256 3.99867 23.8455 3.88543C23.7655 3.77219 23.7085 3.64429 23.6779 3.50903C23.6472 3.37377 23.6435 3.2338 23.667 3.09712C23.6905 2.96043 23.7406 2.82971 23.8146 2.71241C23.8886 2.59511 23.985 2.49353 24.0982 2.41347C24.2114 2.33341 24.3393 2.27644 24.4746 2.24581C24.6099 2.21518 24.7498 2.21149 24.8865 2.23495C25.0232 2.25842 25.1539 2.30857 25.2712 2.38256C27.4648 3.7871 29.2461 5.74908 30.4327 8.06783C30.5614 8.3163 30.5861 8.60569 30.5015 8.87239C30.4169 9.13909 30.2298 9.36129 29.9815 9.49014ZM5.13857 9.60889C5.33194 9.60881 5.52158 9.5556 5.68678 9.45509C5.85198 9.35457 5.98639 9.21061 6.07534 9.03891C7.08284 7.04859 8.60781 5.36637 10.49 4.16902C10.7269 4.0196 10.8948 3.7822 10.9566 3.50903C11.0185 3.23586 10.9693 2.94931 10.8199 2.71241C10.6705 2.47551 10.4331 2.30767 10.1599 2.24581C9.88673 2.18395 9.60017 2.23314 9.36327 2.38256C7.16965 3.7871 5.38844 5.74908 4.2018 8.06783C4.11846 8.22869 4.07793 8.40829 4.08411 8.58935C4.09029 8.77041 4.14296 8.94684 4.23706 9.10164C4.33117 9.25645 4.46353 9.38443 4.62142 9.47327C4.77931 9.56211 4.95741 9.60881 5.13857 9.60889ZM29.6925 23.3227C29.8795 23.6434 29.9786 24.0077 29.9799 24.3789C29.9812 24.7501 29.8846 25.1151 29.6998 25.437C29.515 25.7589 29.2486 26.0265 28.9274 26.2126C28.6062 26.3987 28.2416 26.4969 27.8704 26.4971H22.4873C22.245 27.6902 21.5978 28.7628 20.6552 29.5332C19.7126 30.3036 18.5327 30.7245 17.3153 30.7245C16.0979 30.7245 14.9179 30.3036 13.9753 29.5332C13.0328 28.7628 12.3855 27.6902 12.1432 26.4971H6.76011C6.38912 26.4964 6.02488 26.3979 5.70407 26.2116C5.38326 26.0253 5.11722 25.7577 4.93274 25.4359C4.74826 25.114 4.65187 24.7492 4.65326 24.3782C4.65465 24.0072 4.75378 23.6432 4.94066 23.3227C6.12944 21.271 6.76011 18.3538 6.76011 14.8865C6.76011 12.0871 7.87217 9.40232 9.85164 7.42284C11.8311 5.44336 14.5159 4.33131 17.3153 4.33131C20.1147 4.33131 22.7994 5.44336 24.7789 7.42284C26.7584 9.40232 27.8704 12.0871 27.8704 14.8865C27.8704 18.3525 28.5011 21.2697 29.6925 23.3227ZM20.2997 26.4971H14.3308C14.5495 27.1138 14.9538 27.6477 15.4883 28.0252C16.0227 28.4027 16.6609 28.6054 17.3153 28.6054C17.9696 28.6054 18.6079 28.4027 19.1423 28.0252C19.6767 27.6477 20.0811 27.1138 20.2997 26.4971ZM27.8704 24.3861C26.4666 21.9756 25.7594 18.78 25.7594 14.8865C25.7594 12.6469 24.8698 10.4991 23.2862 8.91557C21.7026 7.33198 19.5548 6.44234 17.3153 6.44234C15.0757 6.44234 12.9279 7.33198 11.3444 8.91557C9.76079 10.4991 8.87114 12.6469 8.87114 14.8865C8.87114 18.7813 8.1613 21.9769 6.76011 24.3861H27.8704Z" fill="#5C6E7F"/>
</svg>
