<svg width="34" height="34" viewBox="0 0 34 34" fill="none" xmlns="http://www.w3.org/2000/svg">
<path d="M20.6055 10.069H22.0859C22.4784 10.0695 22.8547 10.2256 23.1322 10.5032C23.4097 10.7807 23.5658 11.1569 23.5663 11.5494V13.0298C23.5663 13.4224 23.7223 13.799 23.9999 14.0766C24.2776 14.3542 24.6541 14.5102 25.0467 14.5102C25.4394 14.5102 25.8159 14.3542 26.0935 14.0766C26.3712 13.799 26.5271 13.4224 26.5271 13.0298V11.5494C26.5259 10.3719 26.0575 9.24302 25.2249 8.41041C24.3923 7.5778 23.2634 7.10948 22.0859 7.10819H20.6055C20.2129 7.10819 19.8364 7.26416 19.5587 7.54179C19.2811 7.81942 19.1251 8.19596 19.1251 8.58859C19.1251 8.98122 19.2811 9.35776 19.5587 9.63539C19.8364 9.91302 20.2129 10.069 20.6055 10.069ZM14.6839 23.3926H13.2035C12.8111 23.3921 12.4348 23.236 12.1573 22.9584C11.8798 22.6809 11.7236 22.3047 11.7231 21.9122V20.4318C11.7231 20.0392 11.5672 19.6626 11.2895 19.385C11.0119 19.1074 10.6354 18.9514 10.2427 18.9514C9.85011 18.9514 9.47356 19.1074 9.19593 19.385C8.9183 19.6626 8.76233 20.0392 8.76233 20.4318V21.9122C8.76362 23.0897 9.23194 24.2186 10.0646 25.0512C10.8972 25.8838 12.0261 26.3521 13.2035 26.3534H14.6839C15.0766 26.3534 15.4531 26.1974 15.7307 25.9198C16.0084 25.6422 16.1643 25.2656 16.1643 24.873C16.1643 24.4804 16.0084 24.1038 15.7307 23.8262C15.4531 23.5486 15.0766 23.3926 14.6839 23.3926ZM13.2476 16.3499C13.3438 16.7297 13.5868 17.056 13.9232 17.257C14.2595 17.4581 14.6619 17.5176 15.0421 17.4225C15.4222 17.3274 15.7492 17.0855 15.9513 16.7497C16.1534 16.414 16.2141 16.0118 16.1202 15.6313L13.5187 5.22444C13.3359 4.49392 12.9143 3.84544 12.3207 3.38206C11.7271 2.91868 10.9957 2.66699 10.2427 2.66699C9.48967 2.66699 8.75825 2.91868 8.16468 3.38206C7.57111 3.84544 7.14946 4.49392 6.96673 5.22444L4.36519 15.6313C4.27125 16.0118 4.33199 16.414 4.53409 16.7497C4.73618 17.0855 5.06315 17.3274 5.44332 17.4225C5.8235 17.5176 6.22587 17.4581 6.56224 17.257C6.89862 17.056 7.14155 16.7297 7.2378 16.3499L8.06773 13.0298H12.4177L13.2476 16.3499ZM8.80793 10.069L9.83934 5.94295C9.87032 5.86104 9.92551 5.7905 9.99756 5.74072C10.0696 5.69094 10.1551 5.66428 10.2427 5.66428C10.3303 5.66428 10.4158 5.69094 10.4878 5.74072C10.5599 5.7905 10.6151 5.86104 10.646 5.94295L11.6775 10.069H8.80793Z" fill="#5C6E7F"/>
<path d="M25.6829 31.3276C25.0269 31.3276 24.3856 31.2479 23.759 31.0887C23.1421 30.9295 22.5841 30.6757 22.0847 30.3274C21.5854 29.989 21.1889 29.5511 20.8951 29.0137C20.6014 28.4762 20.4545 27.8293 20.4545 27.073C20.4545 26.2569 20.6161 25.5105 20.9392 24.8337C21.2623 24.147 21.7176 23.5399 22.305 23.0124C22.8925 22.485 23.5876 22.0471 24.3905 21.6987C25.2031 21.3405 26.0892 21.0867 27.0487 20.9374L27.5333 22.9079C26.6717 23.0672 25.9227 23.2762 25.2863 23.5349C24.6597 23.7937 24.1408 24.0972 23.7296 24.4456C23.3184 24.7939 23.01 25.1671 22.8043 25.5652C22.6085 25.9732 22.5106 26.4012 22.5106 26.849C22.5106 27.2073 22.5743 27.5208 22.7015 27.7895C22.8386 28.0582 23.0197 28.2822 23.2449 28.4613C23.4701 28.6504 23.7198 28.7997 23.9939 28.9092C24.2681 29.0286 24.552 29.1132 24.8457 29.1629C25.1395 29.2127 25.4185 29.2376 25.6829 29.2376C26.3584 29.2376 26.9851 29.1729 27.5627 29.0435C28.1502 28.9141 28.6642 28.7549 29.1048 28.5658L29.6922 30.4916C29.4573 30.611 29.1244 30.7354 28.6936 30.8648C28.2726 30.9942 27.7977 31.1036 27.269 31.1932C26.7501 31.2828 26.2214 31.3276 25.6829 31.3276ZM22.7603 23.0572C22.4176 22.9179 22.0994 22.7188 21.8057 22.4601C21.5217 22.2013 21.2917 21.8828 21.1154 21.5047C20.949 21.1165 20.8658 20.6736 20.8658 20.176C20.8658 19.549 21.0273 19.0066 21.3504 18.5488C21.6735 18.091 22.1043 17.7377 22.6428 17.4889C23.1813 17.2401 23.7688 17.1157 24.4052 17.1157C24.7185 17.1157 25.0073 17.1356 25.2717 17.1754C25.5458 17.2152 25.8248 17.2749 26.1088 17.3546L25.7857 19.34C25.5801 19.2903 25.3696 19.2505 25.1542 19.2206C24.9388 19.1908 24.7478 19.1758 24.5814 19.1758C24.2387 19.1758 23.9401 19.2256 23.6855 19.3251C23.4408 19.4246 23.2498 19.5689 23.1128 19.758C22.9855 19.9372 22.9218 20.1512 22.9218 20.4C22.9218 20.599 22.9806 20.7881 23.0981 20.9672C23.2254 21.1464 23.3869 21.3056 23.5827 21.4449C23.7785 21.5743 23.9939 21.6838 24.2289 21.7734C24.4639 21.853 24.694 21.8978 24.9192 21.9077L22.7603 23.0572Z" fill="#5C6E7F"/>
</svg>
